<?xml version="1.0" encoding="utf-8"?>
<!-- Generator: Adobe Illustrator 22.1.0, SVG Export Plug-In . SVG Version: 6.00 Build 0)  -->
<svg version="1.1" xmlns="http://www.w3.org/2000/svg" xmlns:xlink="http://www.w3.org/1999/xlink" x="0px" y="0px"
	 viewBox="0 0 337 81.6" style="enable-background:new 0 0 337 81.6;" xml:space="preserve">
<style type="text/css">
	.st0{fill:#FFFFFF;}
	.st1{clip-path:url(#SVGID_2_);}
	.st2{clip-path:url(#SVGID_4_);fill:#231F20;}
	.st3{clip-path:url(#SVGID_6_);}
	.st4{clip-path:url(#SVGID_8_);fill:#231F20;}
	.st5{clip-path:url(#SVGID_10_);}
	.st6{clip-path:url(#SVGID_12_);fill:#231F20;}
	.st7{clip-path:url(#SVGID_14_);}
	.st8{clip-path:url(#SVGID_16_);fill:#231F20;}
	.st9{clip-path:url(#SVGID_18_);}
	.st10{clip-path:url(#SVGID_20_);enable-background:new    ;}
	.st11{clip-path:url(#SVGID_22_);}
	.st12{clip-path:url(#SVGID_24_);}
	.st13{clip-path:url(#SVGID_26_);fill:#231F20;}
	.st14{clip-path:url(#SVGID_28_);}
	.st15{clip-path:url(#SVGID_30_);fill:#231F20;}
	.st16{clip-path:url(#SVGID_32_);}
	.st17{clip-path:url(#SVGID_34_);fill:#231F20;}
	.st18{clip-path:url(#SVGID_36_);}
	.st19{clip-path:url(#SVGID_38_);fill:#231F20;}
	.st20{clip-path:url(#SVGID_40_);}
	.st21{clip-path:url(#SVGID_42_);enable-background:new    ;}
	.st22{clip-path:url(#SVGID_44_);}
	.st23{clip-path:url(#SVGID_46_);}
	.st24{clip-path:url(#SVGID_48_);fill:#231F20;}
	.st25{clip-path:url(#SVGID_50_);}
	.st26{clip-path:url(#SVGID_52_);fill:#231F20;}
	.st27{clip-path:url(#SVGID_54_);}
	.st28{clip-path:url(#SVGID_56_);enable-background:new    ;}
	.st29{clip-path:url(#SVGID_58_);}
	.st30{clip-path:url(#SVGID_60_);}
	.st31{clip-path:url(#SVGID_62_);fill:#231F20;}
	.st32{clip-path:url(#SVGID_64_);}
	.st33{clip-path:url(#SVGID_66_);fill:#231F20;}
	.st34{clip-path:url(#SVGID_68_);}
	.st35{clip-path:url(#SVGID_70_);fill:#231F20;}
	.st36{clip-path:url(#SVGID_72_);}
	.st37{clip-path:url(#SVGID_74_);fill:#FFFC00;}
</style>
<g id="Layer_2">
</g>
<g id="Layer_1">
	<title>logohl</title>
	<g>
		<rect x="1" y="2" class="st0" width="334.1" height="78.1"/>
		<g>
			<g>
				<defs>
					<polygon id="SVGID_1_" points="28.9,12.9 27,25.1 15.9,25.1 17.8,12.9 9.3,12.9 4.3,44.7 12.8,44.7 14.8,31.7 25.9,31.7 
						23.9,44.7 32.5,44.7 37.5,12.9 					"/>
				</defs>
				<clipPath id="SVGID_2_">
					<use xlink:href="#SVGID_1_"  style="overflow:visible;"/>
				</clipPath>
				<g class="st1">
					<defs>
						<rect id="SVGID_3_" x="-64.2" y="-56.3" width="2206.4" height="9458"/>
					</defs>
					<clipPath id="SVGID_4_">
						<use xlink:href="#SVGID_3_"  style="overflow:visible;"/>
					</clipPath>
					<rect x="-1.9" y="6.7" class="st2" width="45.5" height="44.1"/>
				</g>
			</g>
			<g>
				<defs>
					<path id="SVGID_5_" d="M54.7,41.7c-1.1,1.2-2.2,2.2-3.5,2.8c-1.3,0.6-2.7,0.9-4.2,0.9c-2.5,0-4.6-0.9-6.2-2.8
						c-1.6-1.9-2.4-4.4-2.4-7.4c0-3.8,1.1-6.9,3.3-9.5c2.2-2.5,4.9-3.8,8.2-3.8c1.5,0,2.9,0.3,4.1,0.9c1.2,0.6,2.3,1.6,3.3,2.9
						l0.5-3.2H65l-3.5,21.9h-7.2L54.7,41.7z M46.1,34.5c0,1.4,0.4,2.5,1.3,3.4c0.9,0.9,2,1.3,3.4,1.3c1.5,0,2.8-0.6,3.8-1.8
						c1-1.2,1.5-2.7,1.5-4.5c0-1.4-0.4-2.5-1.3-3.3c-0.9-0.8-2-1.3-3.3-1.3c-1.6,0-2.9,0.6-3.9,1.8C46.6,31.2,46.1,32.7,46.1,34.5z"
						/>
				</defs>
				<clipPath id="SVGID_6_">
					<use xlink:href="#SVGID_5_"  style="overflow:visible;"/>
				</clipPath>
				<g class="st3">
					<defs>
						<rect id="SVGID_7_" x="-64.2" y="-56.3" width="2206.4" height="9458"/>
					</defs>
					<clipPath id="SVGID_8_">
						<use xlink:href="#SVGID_7_"  style="overflow:visible;"/>
					</clipPath>
					<rect x="32.2" y="15.9" class="st4" width="38.9" height="35.7"/>
				</g>
			</g>
			<g>
				<defs>
					<path id="SVGID_9_" d="M65,54.4l5-31.6h7.3l-0.5,3c1.1-1.2,2.3-2.2,3.6-2.8c1.3-0.6,2.7-0.9,4.1-0.9c2.5,0,4.6,0.9,6.2,2.8
						c1.6,1.9,2.4,4.3,2.4,7.4c0,3.8-1.1,6.9-3.3,9.5c-2.2,2.5-4.9,3.8-8.2,3.8c-1.5,0-2.8-0.3-4-0.9c-1.2-0.6-2.3-1.6-3.4-2.9
						c0,0.7,0,1.3-0.1,1.9c0,0.6-0.1,1.1-0.2,1.5l-1.4,9.3H65z M85.2,33.2c0-1.4-0.4-2.5-1.3-3.4c-0.9-0.9-2-1.3-3.4-1.3
						c-1.6,0-2.8,0.6-3.9,1.8c-1,1.2-1.5,2.7-1.5,4.5c0,1.4,0.4,2.5,1.3,3.3c0.9,0.8,2,1.2,3.3,1.2c1.6,0,2.9-0.6,3.9-1.7
						C84.6,36.4,85.2,35,85.2,33.2z"/>
				</defs>
				<clipPath id="SVGID_10_">
					<use xlink:href="#SVGID_9_"  style="overflow:visible;"/>
				</clipPath>
				<g class="st5">
					<defs>
						<rect id="SVGID_11_" x="-64.2" y="-56.3" width="2206.4" height="9458"/>
					</defs>
					<clipPath id="SVGID_12_">
						<use xlink:href="#SVGID_11_"  style="overflow:visible;"/>
					</clipPath>
					<rect x="58.8" y="15.9" class="st6" width="40.4" height="44.6"/>
				</g>
			</g>
			<g>
				<defs>
					<path id="SVGID_13_" d="M93.5,54.4l5-31.6h7.3l-0.5,3c1.1-1.2,2.3-2.2,3.6-2.8c1.3-0.6,2.7-0.9,4.1-0.9c2.5,0,4.6,0.9,6.2,2.8
						c1.6,1.9,2.4,4.3,2.4,7.4c0,3.8-1.1,6.9-3.3,9.5c-2.2,2.5-4.9,3.8-8.2,3.8c-1.5,0-2.8-0.3-4-0.9c-1.2-0.6-2.3-1.6-3.4-2.9
						c0,0.7,0,1.3-0.1,1.9c0,0.6-0.1,1.1-0.2,1.5l-1.4,9.3H93.5z M113.7,33.2c0-1.4-0.4-2.5-1.3-3.4c-0.9-0.9-2-1.3-3.4-1.3
						c-1.6,0-2.8,0.6-3.9,1.8c-1,1.2-1.5,2.7-1.5,4.5c0,1.4,0.4,2.5,1.3,3.3c0.9,0.8,2,1.2,3.3,1.2c1.6,0,2.9-0.6,3.9-1.7
						C113.2,36.4,113.7,35,113.7,33.2z"/>
				</defs>
				<clipPath id="SVGID_14_">
					<use xlink:href="#SVGID_13_"  style="overflow:visible;"/>
				</clipPath>
				<g class="st7">
					<defs>
						<rect id="SVGID_15_" x="-64.2" y="-56.3" width="2206.4" height="9458"/>
					</defs>
					<clipPath id="SVGID_16_">
						<use xlink:href="#SVGID_15_"  style="overflow:visible;"/>
					</clipPath>
					<rect x="87.4" y="15.9" class="st8" width="40.4" height="44.6"/>
				</g>
			</g>
			<g>
				<defs>
					<rect id="SVGID_17_" x="123.6" y="12.1" width="12.4" height="32.6"/>
				</defs>
				<clipPath id="SVGID_18_">
					<use xlink:href="#SVGID_17_"  style="overflow:visible;"/>
				</clipPath>
				<g class="st9">
					<defs>
						<rect id="SVGID_19_" x="-64.2" y="-56.3" width="2206.4" height="9458"/>
					</defs>
					<clipPath id="SVGID_20_">
						<use xlink:href="#SVGID_19_"  style="overflow:visible;"/>
					</clipPath>
					<g class="st10">
						<g>
							<defs>
								<rect id="SVGID_21_" x="123.4" y="11.2" width="13.5" height="34.3"/>
							</defs>
							<clipPath id="SVGID_22_">
								<use xlink:href="#SVGID_21_"  style="overflow:visible;"/>
							</clipPath>
							<g class="st11">
								<defs>
									<path id="SVGID_23_" d="M123.6,44.7l3.5-21.9h7.8l-3.5,21.9H123.6z M127.7,16.2c0-1.1,0.4-2.1,1.2-2.9
										c0.8-0.8,1.8-1.2,2.9-1.2c1.2,0,2.2,0.4,3,1.2c0.8,0.8,1.2,1.8,1.2,3c0,1.2-0.4,2.2-1.2,3c-0.8,0.8-1.8,1.2-3,1.2
										c-1.1,0-2.1-0.4-2.9-1.2C128.1,18.3,127.7,17.3,127.7,16.2z"/>
								</defs>
								<clipPath id="SVGID_24_">
									<use xlink:href="#SVGID_23_"  style="overflow:visible;"/>
								</clipPath>
								<g class="st12">
									<defs>
										<rect id="SVGID_25_" x="123.4" y="11.2" width="13.5" height="34.3"/>
									</defs>
									<clipPath id="SVGID_26_">
										<use xlink:href="#SVGID_25_"  style="overflow:visible;"/>
									</clipPath>
									<rect x="117.5" y="5.9" class="st13" width="24.6" height="44.9"/>
								</g>
							</g>
						</g>
					</g>
				</g>
			</g>
			<g>
				<defs>
					<path id="SVGID_27_" d="M143.8,35.5V36c0,1.4,0.4,2.4,1.1,3.2c0.7,0.7,1.7,1.1,3.1,1.1c1,0,1.9-0.2,2.7-0.6
						c0.8-0.4,1.8-1,2.7-1.9l4.2,4.2c-1.2,1.2-2.7,2.1-4.3,2.7c-1.6,0.6-3.5,0.9-5.5,0.9c-3.6,0-6.4-1-8.3-2.9c-2-1.9-3-4.6-3-8
						c0-3.8,1.2-6.8,3.5-9.1c2.4-2.3,5.4-3.5,9.1-3.5c3.4,0,6.1,1,8.2,3.1c2.1,2.1,3.1,4.8,3.1,8.2c0,0.3,0,0.9-0.1,1.7
						c0,0.2-0.1,0.4-0.1,0.5H143.8z M153.2,31.1c-0.1-1.2-0.5-2.1-1.2-2.8c-0.7-0.7-1.7-1-2.9-1c-1.1,0-2,0.3-2.9,1
						c-0.8,0.7-1.5,1.6-1.9,2.8H153.2z"/>
				</defs>
				<clipPath id="SVGID_28_">
					<use xlink:href="#SVGID_27_"  style="overflow:visible;"/>
				</clipPath>
				<g class="st14">
					<defs>
						<rect id="SVGID_29_" x="-64.2" y="-56.3" width="2206.4" height="9458"/>
					</defs>
					<clipPath id="SVGID_30_">
						<use xlink:href="#SVGID_29_"  style="overflow:visible;"/>
					</clipPath>
					<rect x="130.4" y="15.9" class="st15" width="36.2" height="35.8"/>
				</g>
			</g>
			<g>
				<defs>
					<path id="SVGID_31_" d="M162.6,44.7l3.5-21.9h7.4l-0.5,3.7c0.7-1.4,1.6-2.4,2.7-3.2c1.1-0.7,2.5-1.1,4-1.1c0.2,0,0.3,0,0.5,0
						c0.2,0,0.5,0.1,1,0.1l-1.5,6.9c-0.5-0.1-1-0.2-1.4-0.3c-0.4-0.1-0.8-0.1-1.2-0.1c-1.5,0-2.7,0.5-3.5,1.4
						c-0.9,0.9-1.5,2.4-1.8,4.3l-1.6,10H162.6z"/>
				</defs>
				<clipPath id="SVGID_32_">
					<use xlink:href="#SVGID_31_"  style="overflow:visible;"/>
				</clipPath>
				<g class="st16">
					<defs>
						<rect id="SVGID_33_" x="-64.2" y="-56.3" width="2206.4" height="9458"/>
					</defs>
					<clipPath id="SVGID_34_">
						<use xlink:href="#SVGID_33_"  style="overflow:visible;"/>
					</clipPath>
					<rect x="156.5" y="16.1" class="st17" width="30.9" height="34.7"/>
				</g>
			</g>
			<g>
				<defs>
					<polygon id="SVGID_35_" points="201,44.7 206,12.9 214.6,12.9 210.7,37.1 221.2,37.1 220,44.7 					"/>
				</defs>
				<clipPath id="SVGID_36_">
					<use xlink:href="#SVGID_35_"  style="overflow:visible;"/>
				</clipPath>
				<g class="st18">
					<defs>
						<rect id="SVGID_37_" x="-64.2" y="-56.3" width="2206.4" height="9458"/>
					</defs>
					<clipPath id="SVGID_38_">
						<use xlink:href="#SVGID_37_"  style="overflow:visible;"/>
					</clipPath>
					<rect x="194.8" y="6.7" class="st19" width="32.5" height="44.1"/>
				</g>
			</g>
			<g>
				<defs>
					<rect id="SVGID_39_" x="223.5" y="12.1" width="12.4" height="32.6"/>
				</defs>
				<clipPath id="SVGID_40_">
					<use xlink:href="#SVGID_39_"  style="overflow:visible;"/>
				</clipPath>
				<g class="st20">
					<defs>
						<rect id="SVGID_41_" x="-64.2" y="-56.3" width="2206.4" height="9458"/>
					</defs>
					<clipPath id="SVGID_42_">
						<use xlink:href="#SVGID_41_"  style="overflow:visible;"/>
					</clipPath>
					<g class="st21">
						<g>
							<defs>
								<rect id="SVGID_43_" x="222.7" y="11.2" width="13.5" height="34.3"/>
							</defs>
							<clipPath id="SVGID_44_">
								<use xlink:href="#SVGID_43_"  style="overflow:visible;"/>
							</clipPath>
							<g class="st22">
								<defs>
									<path id="SVGID_45_" d="M223.5,44.7l3.5-21.9h7.8l-3.5,21.9H223.5z M227.5,16.2c0-1.1,0.4-2.1,1.2-2.9
										c0.8-0.8,1.8-1.2,2.9-1.2c1.2,0,2.2,0.4,3,1.2c0.8,0.8,1.2,1.8,1.2,3c0,1.2-0.4,2.2-1.2,3c-0.8,0.8-1.8,1.2-3,1.2
										c-1.1,0-2.1-0.4-2.9-1.2C227.9,18.3,227.5,17.3,227.5,16.2z"/>
								</defs>
								<clipPath id="SVGID_46_">
									<use xlink:href="#SVGID_45_"  style="overflow:visible;"/>
								</clipPath>
								<g class="st23">
									<defs>
										<rect id="SVGID_47_" x="222.7" y="11.2" width="13.5" height="34.3"/>
									</defs>
									<clipPath id="SVGID_48_">
										<use xlink:href="#SVGID_47_"  style="overflow:visible;"/>
									</clipPath>
									<rect x="217.3" y="5.9" class="st24" width="24.6" height="44.9"/>
								</g>
							</g>
						</g>
					</g>
				</g>
			</g>
			<g>
				<defs>
					<path id="SVGID_49_" d="M244.2,44.7l-7.5-21.9h8l3.1,10.9c0.1,0.5,0.3,1,0.4,1.7c0.1,0.6,0.2,1.3,0.2,1.9
						c0.4-0.9,0.7-1.7,1-2.3c0.3-0.6,0.5-1.1,0.7-1.4l6-10.7h8.5L251,44.7H244.2z"/>
				</defs>
				<clipPath id="SVGID_50_">
					<use xlink:href="#SVGID_49_"  style="overflow:visible;"/>
				</clipPath>
				<g class="st25">
					<defs>
						<rect id="SVGID_51_" x="-64.2" y="-56.3" width="2206.4" height="9458"/>
					</defs>
					<clipPath id="SVGID_52_">
						<use xlink:href="#SVGID_51_"  style="overflow:visible;"/>
					</clipPath>
					<rect x="230.6" y="16.6" class="st26" width="40.1" height="34.2"/>
				</g>
			</g>
			<g>
				<defs>
					<rect id="SVGID_53_" x="263.3" y="12.1" width="12.4" height="32.6"/>
				</defs>
				<clipPath id="SVGID_54_">
					<use xlink:href="#SVGID_53_"  style="overflow:visible;"/>
				</clipPath>
				<g class="st27">
					<defs>
						<rect id="SVGID_55_" x="-64.2" y="-56.3" width="2206.4" height="9458"/>
					</defs>
					<clipPath id="SVGID_56_">
						<use xlink:href="#SVGID_55_"  style="overflow:visible;"/>
					</clipPath>
					<g class="st28">
						<g>
							<defs>
								<rect id="SVGID_57_" x="263.1" y="11.2" width="13.5" height="34.3"/>
							</defs>
							<clipPath id="SVGID_58_">
								<use xlink:href="#SVGID_57_"  style="overflow:visible;"/>
							</clipPath>
							<g class="st29">
								<defs>
									<path id="SVGID_59_" d="M263.3,44.7l3.5-21.9h7.8l-3.5,21.9H263.3z M267.4,16.2c0-1.1,0.4-2.1,1.2-2.9
										c0.8-0.8,1.8-1.2,2.9-1.2c1.2,0,2.2,0.4,3,1.2c0.8,0.8,1.2,1.8,1.2,3c0,1.2-0.4,2.2-1.2,3c-0.8,0.8-1.8,1.2-3,1.2
										c-1.1,0-2.1-0.4-2.9-1.2C267.8,18.3,267.4,17.3,267.4,16.2z"/>
								</defs>
								<clipPath id="SVGID_60_">
									<use xlink:href="#SVGID_59_"  style="overflow:visible;"/>
								</clipPath>
								<g class="st30">
									<defs>
										<rect id="SVGID_61_" x="263.1" y="11.2" width="13.5" height="34.3"/>
									</defs>
									<clipPath id="SVGID_62_">
										<use xlink:href="#SVGID_61_"  style="overflow:visible;"/>
									</clipPath>
									<rect x="257.2" y="5.9" class="st31" width="24.6" height="44.9"/>
								</g>
							</g>
						</g>
					</g>
				</g>
			</g>
			<g>
				<defs>
					<path id="SVGID_63_" d="M274.7,44.7l3.5-21.9h7.4l-0.5,3.4c1.2-1.5,2.4-2.5,3.6-3.2c1.2-0.7,2.5-1,3.9-1c2.3,0,4,0.6,5.3,1.8
						c1.3,1.2,1.9,2.9,1.9,5.1c0,0.8-0.1,2-0.4,3.8c0,0.2,0,0.3,0,0.4l-1.8,11.5h-7.8l1.8-11.6c0.1-0.3,0.1-0.7,0.1-1
						c0-0.3,0.1-0.6,0.1-0.8c0-1-0.3-1.7-0.8-2.2c-0.5-0.5-1.3-0.7-2.2-0.7c-1.3,0-2.4,0.5-3.2,1.5c-0.8,1-1.3,2.5-1.6,4.7
						l-1.6,10.2H274.7z"/>
				</defs>
				<clipPath id="SVGID_64_">
					<use xlink:href="#SVGID_63_"  style="overflow:visible;"/>
				</clipPath>
				<g class="st32">
					<defs>
						<rect id="SVGID_65_" x="-64.2" y="-56.3" width="2206.4" height="9458"/>
					</defs>
					<clipPath id="SVGID_66_">
						<use xlink:href="#SVGID_65_"  style="overflow:visible;"/>
					</clipPath>
					<rect x="268.5" y="15.9" class="st33" width="37.3" height="34.9"/>
				</g>
			</g>
			<g>
				<defs>
					<path id="SVGID_67_" d="M326.3,39.5c-0.1,0.3-0.1,0.8-0.2,1.4c-0.7,4.6-1.6,7.6-2.8,9.1c-1.2,1.4-2.7,2.5-4.6,3.2
						c-1.9,0.7-4,1.1-6.3,1.1c-3.4,0-6-0.7-8-2.1c-1.9-1.4-3.1-3.4-3.5-6h8.1c0.1,0.9,0.5,1.6,1.1,2c0.6,0.5,1.4,0.7,2.5,0.7
						c1.6,0,2.9-0.5,3.8-1.4c0.9-0.9,1.5-2.4,1.8-4.3l0.3-1.9c-1,1.2-2.1,2.1-3.3,2.7c-1.2,0.6-2.6,0.9-4.1,0.9
						c-2.6,0-4.7-0.9-6.3-2.8c-1.6-1.9-2.4-4.3-2.4-7.3c0-3.7,1.1-6.8,3.3-9.3c2.2-2.5,4.9-3.7,8.2-3.7c1.5,0,2.8,0.3,4,0.9
						c1.2,0.6,2.3,1.6,3.3,2.9l0.5-3.1h7.3L326.3,39.5z M310.2,34.5c0,1.4,0.4,2.5,1.3,3.4c0.8,0.9,1.9,1.3,3.3,1.3
						c1.6,0,2.9-0.6,3.9-1.8c1.1-1.2,1.6-2.7,1.6-4.5c0-1.4-0.4-2.5-1.3-3.3c-0.8-0.8-2-1.3-3.4-1.3c-1.6,0-2.9,0.6-3.9,1.8
						C310.7,31.2,310.2,32.7,310.2,34.5z"/>
				</defs>
				<clipPath id="SVGID_68_">
					<use xlink:href="#SVGID_67_"  style="overflow:visible;"/>
				</clipPath>
				<g class="st34">
					<defs>
						<rect id="SVGID_69_" x="-64.2" y="-56.3" width="2206.4" height="9458"/>
					</defs>
					<clipPath id="SVGID_70_">
						<use xlink:href="#SVGID_69_"  style="overflow:visible;"/>
					</clipPath>
					<rect x="294.9" y="15.9" class="st35" width="40.2" height="44.6"/>
				</g>
			</g>
			<g>
				<defs>
					<path id="SVGID_71_" d="M126.8,55l2.5,3.2c-10.1,12.8-22.5,19.3-37.1,19.3S65.1,70.9,55,58.2l2.5-3.2
						C70,65.1,79.3,68.7,92.1,68.7S114.2,65.1,126.8,55"/>
				</defs>
				<clipPath id="SVGID_72_">
					<use xlink:href="#SVGID_71_"  style="overflow:visible;"/>
				</clipPath>
				<g class="st36">
					<defs>
						<rect id="SVGID_73_" x="-64.2" y="-56.3" width="2206.4" height="9458"/>
					</defs>
					<clipPath id="SVGID_74_">
						<use xlink:href="#SVGID_73_"  style="overflow:visible;"/>
					</clipPath>
					<rect x="48.9" y="48.9" class="st37" width="86.5" height="34.7"/>
				</g>
			</g>
		</g>
	</g>
</g>
</svg>
