<svg xmlns="http://www.w3.org/2000/svg" viewBox="0 0 285 285"><defs><style>.cls-1{fill:#6da049;}.cls-2{fill:#fff;}</style></defs><title>reports</title><g id="Layer_2" data-name="Layer 2"><g id="Layer_1-2" data-name="Layer 1"><circle class="cls-1" cx="142.5" cy="142.5" r="142.5"/><path class="cls-2" d="M198.81,121a2.56,2.56,0,0,0-2.76,2.3v79.28H91.22V174.43a2.81,2.81,0,0,0-5.53,0v30.49a2.56,2.56,0,0,0,2.76,2.3H198.81a2.57,2.57,0,0,0,2.77-2.3V123.34A2.57,2.57,0,0,0,198.81,121Z"/><path class="cls-2" d="M211.55,74.3H186V71a2.56,2.56,0,0,0-2.76-2.3H158.93c-2.44-5.17-8.45-8.65-15.3-8.65s-12.85,3.48-15.29,8.65H104.07a2.56,2.56,0,0,0-2.76,2.3V74.3H75.71A2.56,2.56,0,0,0,73,76.6V214.48a2.56,2.56,0,0,0,2.76,2.3H211.55a2.57,2.57,0,0,0,2.77-2.3V76.6A2.57,2.57,0,0,0,211.55,74.3Zm-104.71-1h23.52A2.71,2.71,0,0,0,133,71.51c1.2-4.06,5.56-6.89,10.59-6.89s9.39,2.83,10.59,6.89a2.72,2.72,0,0,0,2.69,1.75h23.52V87.75H106.84ZM208.79,212.18H78.48V78.89h22.83V83H88.45a2.56,2.56,0,0,0-2.76,2.29v81.49a2.81,2.81,0,0,0,5.53,0V87.58h10.09v2.47a2.56,2.56,0,0,0,2.76,2.3h79.12a2.57,2.57,0,0,0,2.77-2.3V87.58h10.09v28.1a2.81,2.81,0,0,0,5.53,0V85.28A2.56,2.56,0,0,0,198.81,83H186v-4.1h22.83V212.18Z"/><path class="cls-2" d="M166.24,107.42a3.15,3.15,0,0,0-3.85.61,2.07,2.07,0,0,0,.73,3.19c10.07,5.7,16.37,14.88,17.21,24.89H142.1l-18.23-23.78-.65-.85-1.43-1.86a45.92,45.92,0,0,1,19.09-4.07,46.58,46.58,0,0,1,14.17,2.17,3,3,0,0,0,3.57-1.33,2.19,2.19,0,0,0-1.59-3,52.83,52.83,0,0,0-16.15-2.48,51.72,51.72,0,0,0-24.45,6,2.08,2.08,0,0,0-.83,3.16l1.53,2c-9.95,6.2-15.82,15.87-15.82,26.3,0,10.25,5.59,19.72,15.35,26a3.17,3.17,0,0,0,1.69.48l.36,0a3,3,0,0,0,1.84-.88l2.13-2.32a38,38,0,0,0,18.2,4.48c17.48,0,31.86-11.22,33.28-25.44h9a3.08,3.08,0,0,0,2-.68,2.14,2.14,0,0,0,.81-1.64C186,126,178.59,114.41,166.24,107.42ZM119.91,157.1h0l-2,2.17c-7.07-5.35-11.07-12.84-11.07-20.88,0-8.85,4.91-17.07,13.27-22.41l17.11,22.29Zm21,4.44A31.8,31.8,0,0,1,126.05,158l15.9-17.3h26.66C167.21,152.39,155.31,161.54,140.88,161.54Z"/><path class="cls-2" d="M179,176.53H109a2.33,2.33,0,1,0,0,4.59h70a2.34,2.34,0,1,0,0-4.59Z"/><path class="cls-2" d="M157.22,187.5H109a2.33,2.33,0,1,0,0,4.59h48.26a2.34,2.34,0,1,0,0-4.59Z"/></g></g></svg>